<svg width="110" height="100" viewBox="0 0 338 237" fill="none" xmlns="http://www.w3.org/2000/svg">
<rect x="139" y="144" width="107" height="93" rx="10" fill="#0099FF"/>
<rect x="201" width="137" height="122" rx="10" fill="#FF5050"/>
<g filter="url(#filter0_b_0_1)">
<path d="M0 93C0 76.4315 13.4315 63 30 63H271C287.569 63 301 76.4315 301 93V150C301 166.569 287.569 180 271 180H30C13.4315 180 0 166.569 0 150V93Z" fill="url(#paint0_linear_0_1)"/>
<path d="M30 65H271C286.464 65 299 77.536 299 93V150C299 165.464 286.464 178 271 178H30C14.536 178 2 165.464 2 150V93C2 77.536 14.536 65 30 65Z" stroke="url(#paint1_linear_0_1)" stroke-opacity="0.61" stroke-width="4"/>
</g>
<g filter="url(#filter1_bd_0_1)">
<path d="M48.45 119.825C54.5 118.675 57.775 118.1 58.275 118.1C58.825 118.1 59.35 118.55 59.85 119.45C60.35 120.35 60.6 121.1 60.6 121.7C60.6 123.6 60.025 124.6 58.875 124.7L50.25 125.75L55.8 134.3C56.5 136 55.475 137.35 52.725 138.35C52.225 138.5 51.825 138.575 51.525 138.575C50.525 138.575 49.9 138.325 49.65 137.825L45.225 129.35L41.175 137.825C40.875 138.225 40.475 138.425 39.975 138.425C39.525 138.425 38.925 138.35 38.175 138.2C37.475 138.05 36.75 137.6 36 136.85C35.25 136.1 34.875 135.525 34.875 135.125C34.875 134.675 34.975 134.325 35.175 134.075L40.425 125.75C36.275 125.2 33.4 124.85 31.8 124.7C30.65 124.65 30.075 123.825 30.075 122.225C30.075 121.325 30.325 120.425 30.825 119.525C31.325 118.575 31.95 118.1 32.7 118.1L42.075 119.825L41.775 110.9C41.725 110.05 42.3 109.45 43.5 109.1C44.1 108.9 44.7 108.8 45.3 108.8C45.9 108.8 46.5 108.9 47.1 109.1C48.25 109.45 48.8 110.05 48.75 110.9L48.45 119.825ZM90.198 119.825C96.248 118.675 99.523 118.1 100.023 118.1C100.573 118.1 101.098 118.55 101.598 119.45C102.098 120.35 102.348 121.1 102.348 121.7C102.348 123.6 101.773 124.6 100.623 124.7L91.998 125.75L97.548 134.3C98.248 136 97.223 137.35 94.473 138.35C93.973 138.5 93.573 138.575 93.273 138.575C92.273 138.575 91.648 138.325 91.398 137.825L86.973 129.35L82.923 137.825C82.623 138.225 82.223 138.425 81.723 138.425C81.273 138.425 80.673 138.35 79.923 138.2C79.223 138.05 78.498 137.6 77.748 136.85C76.998 136.1 76.623 135.525 76.623 135.125C76.623 134.675 76.723 134.325 76.923 134.075L82.173 125.75C78.023 125.2 75.148 124.85 73.548 124.7C72.398 124.65 71.823 123.825 71.823 122.225C71.823 121.325 72.073 120.425 72.573 119.525C73.073 118.575 73.698 118.1 74.448 118.1L83.823 119.825L83.523 110.9C83.473 110.05 84.048 109.45 85.248 109.1C85.848 108.9 86.448 108.8 87.048 108.8C87.648 108.8 88.248 108.9 88.848 109.1C89.998 109.45 90.548 110.05 90.498 110.9L90.198 119.825ZM131.946 119.825C137.996 118.675 141.271 118.1 141.771 118.1C142.321 118.1 142.846 118.55 143.346 119.45C143.846 120.35 144.096 121.1 144.096 121.7C144.096 123.6 143.521 124.6 142.371 124.7L133.746 125.75L139.296 134.3C139.996 136 138.971 137.35 136.221 138.35C135.721 138.5 135.321 138.575 135.021 138.575C134.021 138.575 133.396 138.325 133.146 137.825L128.721 129.35L124.671 137.825C124.371 138.225 123.971 138.425 123.471 138.425C123.021 138.425 122.421 138.35 121.671 138.2C120.971 138.05 120.246 137.6 119.496 136.85C118.746 136.1 118.371 135.525 118.371 135.125C118.371 134.675 118.471 134.325 118.671 134.075L123.921 125.75C119.771 125.2 116.896 124.85 115.296 124.7C114.146 124.65 113.571 123.825 113.571 122.225C113.571 121.325 113.821 120.425 114.321 119.525C114.821 118.575 115.446 118.1 116.196 118.1L125.571 119.825L125.271 110.9C125.221 110.05 125.796 109.45 126.996 109.1C127.596 108.9 128.196 108.8 128.796 108.8C129.396 108.8 129.996 108.9 130.596 109.1C131.746 109.45 132.296 110.05 132.246 110.9L131.946 119.825ZM173.694 119.825C179.744 118.675 183.019 118.1 183.519 118.1C184.069 118.1 184.594 118.55 185.094 119.45C185.594 120.35 185.844 121.1 185.844 121.7C185.844 123.6 185.269 124.6 184.119 124.7L175.494 125.75L181.044 134.3C181.744 136 180.719 137.35 177.969 138.35C177.469 138.5 177.069 138.575 176.769 138.575C175.769 138.575 175.144 138.325 174.894 137.825L170.469 129.35L166.419 137.825C166.119 138.225 165.719 138.425 165.219 138.425C164.769 138.425 164.169 138.35 163.419 138.2C162.719 138.05 161.994 137.6 161.244 136.85C160.494 136.1 160.119 135.525 160.119 135.125C160.119 134.675 160.219 134.325 160.419 134.075L165.669 125.75C161.519 125.2 158.644 124.85 157.044 124.7C155.894 124.65 155.319 123.825 155.319 122.225C155.319 121.325 155.569 120.425 156.069 119.525C156.569 118.575 157.194 118.1 157.944 118.1L167.319 119.825L167.019 110.9C166.969 110.05 167.544 109.45 168.744 109.1C169.344 108.9 169.944 108.8 170.544 108.8C171.144 108.8 171.744 108.9 172.344 109.1C173.494 109.45 174.044 110.05 173.994 110.9L173.694 119.825ZM215.442 119.825C221.492 118.675 224.767 118.1 225.267 118.1C225.817 118.1 226.342 118.55 226.842 119.45C227.342 120.35 227.592 121.1 227.592 121.7C227.592 123.6 227.017 124.6 225.867 124.7L217.242 125.75L222.792 134.3C223.492 136 222.467 137.35 219.717 138.35C219.217 138.5 218.817 138.575 218.517 138.575C217.517 138.575 216.892 138.325 216.642 137.825L212.217 129.35L208.167 137.825C207.867 138.225 207.467 138.425 206.967 138.425C206.517 138.425 205.917 138.35 205.167 138.2C204.467 138.05 203.742 137.6 202.992 136.85C202.242 136.1 201.867 135.525 201.867 135.125C201.867 134.675 201.967 134.325 202.167 134.075L207.417 125.75C203.267 125.2 200.392 124.85 198.792 124.7C197.642 124.65 197.067 123.825 197.067 122.225C197.067 121.325 197.317 120.425 197.817 119.525C198.317 118.575 198.942 118.1 199.692 118.1L209.067 119.825L208.767 110.9C208.717 110.05 209.292 109.45 210.492 109.1C211.092 108.9 211.692 108.8 212.292 108.8C212.892 108.8 213.492 108.9 214.092 109.1C215.242 109.45 215.792 110.05 215.742 110.9L215.442 119.825ZM257.19 119.825C263.24 118.675 266.515 118.1 267.015 118.1C267.565 118.1 268.09 118.55 268.59 119.45C269.09 120.35 269.34 121.1 269.34 121.7C269.34 123.6 268.765 124.6 267.615 124.7L258.99 125.75L264.54 134.3C265.24 136 264.215 137.35 261.465 138.35C260.965 138.5 260.565 138.575 260.265 138.575C259.265 138.575 258.64 138.325 258.39 137.825L253.965 129.35L249.915 137.825C249.615 138.225 249.215 138.425 248.715 138.425C248.265 138.425 247.665 138.35 246.915 138.2C246.215 138.05 245.49 137.6 244.74 136.85C243.99 136.1 243.615 135.525 243.615 135.125C243.615 134.675 243.715 134.325 243.915 134.075L249.165 125.75C245.015 125.2 242.14 124.85 240.54 124.7C239.39 124.65 238.815 123.825 238.815 122.225C238.815 121.325 239.065 120.425 239.565 119.525C240.065 118.575 240.69 118.1 241.44 118.1L250.815 119.825L250.515 110.9C250.465 110.05 251.04 109.45 252.24 109.1C252.84 108.9 253.44 108.8 254.04 108.8C254.64 108.8 255.24 108.9 255.84 109.1C256.99 109.45 257.54 110.05 257.49 110.9L257.19 119.825Z" fill="black"/>
</g>
<defs>
<filter id="filter0_b_0_1" x="-15" y="48" width="331" height="147" filterUnits="userSpaceOnUse" color-interpolation-filters="sRGB">
<feFlood flood-opacity="0" result="BackgroundImageFix"/>
<feGaussianBlur in="BackgroundImageFix" stdDeviation="7.5"/>
<feComposite in2="SourceAlpha" operator="in" result="effect1_backgroundBlur_0_1"/>
<feBlend mode="normal" in="SourceGraphic" in2="effect1_backgroundBlur_0_1" result="shape"/>
</filter>
<filter id="filter1_bd_0_1" x="26.075" y="102.8" width="250.265" height="39.775" filterUnits="userSpaceOnUse" color-interpolation-filters="sRGB">
<feFlood flood-opacity="0" result="BackgroundImageFix"/>
<feGaussianBlur in="BackgroundImageFix" stdDeviation="2"/>
<feComposite in2="SourceAlpha" operator="in" result="effect1_backgroundBlur_0_1"/>
<feColorMatrix in="SourceAlpha" type="matrix" values="0 0 0 0 0 0 0 0 0 0 0 0 0 0 0 0 0 0 127 0" result="hardAlpha"/>
<feOffset dx="3" dy="-2"/>
<feGaussianBlur stdDeviation="2"/>
<feComposite in2="hardAlpha" operator="out"/>
<feColorMatrix type="matrix" values="0 0 0 0 0.353333 0 0 0 0 0.353333 0 0 0 0 0.353333 0 0 0 1 0"/>
<feBlend mode="normal" in2="effect1_backgroundBlur_0_1" result="effect2_dropShadow_0_1"/>
<feBlend mode="normal" in="SourceGraphic" in2="effect2_dropShadow_0_1" result="shape"/>
</filter>
<linearGradient id="paint0_linear_0_1" x1="138.297" y1="71" x2="129.447" y2="515.968" gradientUnits="userSpaceOnUse">
<stop offset="0.0189996" stop-color="#E6E6E6"/>
</linearGradient>
<linearGradient id="paint1_linear_0_1" x1="241.342" y1="107" x2="104.448" y2="236.158" gradientUnits="userSpaceOnUse">
<stop stop-color="white"/>
<stop offset="1" stop-color="white" stop-opacity="0"/>
</linearGradient>
</defs>
</svg>
