<svg width="110" height="173" viewBox="0 0 343 173" fill="none" xmlns="http://www.w3.org/2000/svg">
<rect x="195" y="87" width="107" height="86" rx="10" fill="#0099FF"/>
<rect y="30" width="137" height="67" rx="10" fill="#FF5050"/>
<g filter="url(#filter0_d_6_26)">
<g filter="url(#filter1_b_6_26)">
<path d="M39 31C39 14.4315 52.4315 1 69 1H310C326.569 1 340 14.4315 340 31V88C340 104.569 326.569 118 310 118H69C52.4315 118 39 104.569 39 88V31Z" fill="url(#paint0_linear_6_26)"/>
<path d="M69 3H310C325.464 3 338 15.536 338 31V88C338 103.464 325.464 116 310 116H69C53.536 116 41 103.464 41 88V31C41 15.536 53.536 3 69 3Z" stroke="url(#paint1_linear_6_26)" stroke-opacity="0.61" stroke-width="4"/>
</g>
<g filter="url(#filter2_bd_6_26)">
<path d="M87.45 57.825C93.5 56.675 96.775 56.1 97.275 56.1C97.825 56.1 98.35 56.55 98.85 57.45C99.35 58.35 99.6 59.1 99.6 59.7C99.6 61.6 99.025 62.6 97.875 62.7L89.25 63.75L94.8 72.3C95.5 74 94.475 75.35 91.725 76.35C91.225 76.5 90.825 76.575 90.525 76.575C89.525 76.575 88.9 76.325 88.65 75.825L84.225 67.35L80.175 75.825C79.875 76.225 79.475 76.425 78.975 76.425C78.525 76.425 77.925 76.35 77.175 76.2C76.475 76.05 75.75 75.6 75 74.85C74.25 74.1 73.875 73.525 73.875 73.125C73.875 72.675 73.975 72.325 74.175 72.075L79.425 63.75C75.275 63.2 72.4 62.85 70.8 62.7C69.65 62.65 69.075 61.825 69.075 60.225C69.075 59.325 69.325 58.425 69.825 57.525C70.325 56.575 70.95 56.1 71.7 56.1L81.075 57.825L80.775 48.9C80.725 48.05 81.3 47.45 82.5 47.1C83.1 46.9 83.7 46.8 84.3 46.8C84.9 46.8 85.5 46.9 86.1 47.1C87.25 47.45 87.8 48.05 87.75 48.9L87.45 57.825ZM129.198 57.825C135.248 56.675 138.523 56.1 139.023 56.1C139.573 56.1 140.098 56.55 140.598 57.45C141.098 58.35 141.348 59.1 141.348 59.7C141.348 61.6 140.773 62.6 139.623 62.7L130.998 63.75L136.548 72.3C137.248 74 136.223 75.35 133.473 76.35C132.973 76.5 132.573 76.575 132.273 76.575C131.273 76.575 130.648 76.325 130.398 75.825L125.973 67.35L121.923 75.825C121.623 76.225 121.223 76.425 120.723 76.425C120.273 76.425 119.673 76.35 118.923 76.2C118.223 76.05 117.498 75.6 116.748 74.85C115.998 74.1 115.623 73.525 115.623 73.125C115.623 72.675 115.723 72.325 115.923 72.075L121.173 63.75C117.023 63.2 114.148 62.85 112.548 62.7C111.398 62.65 110.823 61.825 110.823 60.225C110.823 59.325 111.073 58.425 111.573 57.525C112.073 56.575 112.698 56.1 113.448 56.1L122.823 57.825L122.523 48.9C122.473 48.05 123.048 47.45 124.248 47.1C124.848 46.9 125.448 46.8 126.048 46.8C126.648 46.8 127.248 46.9 127.848 47.1C128.998 47.45 129.548 48.05 129.498 48.9L129.198 57.825ZM170.946 57.825C176.996 56.675 180.271 56.1 180.771 56.1C181.321 56.1 181.846 56.55 182.346 57.45C182.846 58.35 183.096 59.1 183.096 59.7C183.096 61.6 182.521 62.6 181.371 62.7L172.746 63.75L178.296 72.3C178.996 74 177.971 75.35 175.221 76.35C174.721 76.5 174.321 76.575 174.021 76.575C173.021 76.575 172.396 76.325 172.146 75.825L167.721 67.35L163.671 75.825C163.371 76.225 162.971 76.425 162.471 76.425C162.021 76.425 161.421 76.35 160.671 76.2C159.971 76.05 159.246 75.6 158.496 74.85C157.746 74.1 157.371 73.525 157.371 73.125C157.371 72.675 157.471 72.325 157.671 72.075L162.921 63.75C158.771 63.2 155.896 62.85 154.296 62.7C153.146 62.65 152.571 61.825 152.571 60.225C152.571 59.325 152.821 58.425 153.321 57.525C153.821 56.575 154.446 56.1 155.196 56.1L164.571 57.825L164.271 48.9C164.221 48.05 164.796 47.45 165.996 47.1C166.596 46.9 167.196 46.8 167.796 46.8C168.396 46.8 168.996 46.9 169.596 47.1C170.746 47.45 171.296 48.05 171.246 48.9L170.946 57.825ZM212.694 57.825C218.744 56.675 222.019 56.1 222.519 56.1C223.069 56.1 223.594 56.55 224.094 57.45C224.594 58.35 224.844 59.1 224.844 59.7C224.844 61.6 224.269 62.6 223.119 62.7L214.494 63.75L220.044 72.3C220.744 74 219.719 75.35 216.969 76.35C216.469 76.5 216.069 76.575 215.769 76.575C214.769 76.575 214.144 76.325 213.894 75.825L209.469 67.35L205.419 75.825C205.119 76.225 204.719 76.425 204.219 76.425C203.769 76.425 203.169 76.35 202.419 76.2C201.719 76.05 200.994 75.6 200.244 74.85C199.494 74.1 199.119 73.525 199.119 73.125C199.119 72.675 199.219 72.325 199.419 72.075L204.669 63.75C200.519 63.2 197.644 62.85 196.044 62.7C194.894 62.65 194.319 61.825 194.319 60.225C194.319 59.325 194.569 58.425 195.069 57.525C195.569 56.575 196.194 56.1 196.944 56.1L206.319 57.825L206.019 48.9C205.969 48.05 206.544 47.45 207.744 47.1C208.344 46.9 208.944 46.8 209.544 46.8C210.144 46.8 210.744 46.9 211.344 47.1C212.494 47.45 213.044 48.05 212.994 48.9L212.694 57.825ZM254.442 57.825C260.492 56.675 263.767 56.1 264.267 56.1C264.817 56.1 265.342 56.55 265.842 57.45C266.342 58.35 266.592 59.1 266.592 59.7C266.592 61.6 266.017 62.6 264.867 62.7L256.242 63.75L261.792 72.3C262.492 74 261.467 75.35 258.717 76.35C258.217 76.5 257.817 76.575 257.517 76.575C256.517 76.575 255.892 76.325 255.642 75.825L251.217 67.35L247.167 75.825C246.867 76.225 246.467 76.425 245.967 76.425C245.517 76.425 244.917 76.35 244.167 76.2C243.467 76.05 242.742 75.6 241.992 74.85C241.242 74.1 240.867 73.525 240.867 73.125C240.867 72.675 240.967 72.325 241.167 72.075L246.417 63.75C242.267 63.2 239.392 62.85 237.792 62.7C236.642 62.65 236.067 61.825 236.067 60.225C236.067 59.325 236.317 58.425 236.817 57.525C237.317 56.575 237.942 56.1 238.692 56.1L248.067 57.825L247.767 48.9C247.717 48.05 248.292 47.45 249.492 47.1C250.092 46.9 250.692 46.8 251.292 46.8C251.892 46.8 252.492 46.9 253.092 47.1C254.242 47.45 254.792 48.05 254.742 48.9L254.442 57.825ZM296.19 57.825C302.24 56.675 305.515 56.1 306.015 56.1C306.565 56.1 307.09 56.55 307.59 57.45C308.09 58.35 308.34 59.1 308.34 59.7C308.34 61.6 307.765 62.6 306.615 62.7L297.99 63.75L303.54 72.3C304.24 74 303.215 75.35 300.465 76.35C299.965 76.5 299.565 76.575 299.265 76.575C298.265 76.575 297.64 76.325 297.39 75.825L292.965 67.35L288.915 75.825C288.615 76.225 288.215 76.425 287.715 76.425C287.265 76.425 286.665 76.35 285.915 76.2C285.215 76.05 284.49 75.6 283.74 74.85C282.99 74.1 282.615 73.525 282.615 73.125C282.615 72.675 282.715 72.325 282.915 72.075L288.165 63.75C284.015 63.2 281.14 62.85 279.54 62.7C278.39 62.65 277.815 61.825 277.815 60.225C277.815 59.325 278.065 58.425 278.565 57.525C279.065 56.575 279.69 56.1 280.44 56.1L289.815 57.825L289.515 48.9C289.465 48.05 290.04 47.45 291.24 47.1C291.84 46.9 292.44 46.8 293.04 46.8C293.64 46.8 294.24 46.9 294.84 47.1C295.99 47.45 296.54 48.05 296.49 48.9L296.19 57.825Z" fill="black"/>
</g>
</g>
<circle cx="21" cy="56" r="13" fill="black"/>
<rect x="13" y="56" width="16" height="28" rx="3" fill="black"/>
<g filter="url(#filter3_d_6_26)">
<path d="M217 139C217 137.895 217.895 137 219 137H225C226.105 137 227 137.895 227 139V155C227 156.105 226.105 157 225 157H219C217.895 157 217 156.105 217 155V139Z" fill="#FFCC00"/>
<rect x="210" y="136" width="53" height="12" rx="3" fill="#FFCC00"/>
<rect x="262" y="130" width="20" height="24" rx="6" stroke="#FFCC00" stroke-width="8"/>
</g>
<defs>
<filter id="filter0_d_6_26" x="34" y="0" width="309" height="125" filterUnits="userSpaceOnUse" color-interpolation-filters="sRGB">
<feFlood flood-opacity="0" result="BackgroundImageFix"/>
<feColorMatrix in="SourceAlpha" type="matrix" values="0 0 0 0 0 0 0 0 0 0 0 0 0 0 0 0 0 0 127 0" result="hardAlpha"/>
<feOffset dx="-1" dy="3"/>
<feGaussianBlur stdDeviation="2"/>
<feComposite in2="hardAlpha" operator="out"/>
<feColorMatrix type="matrix" values="0 0 0 0 0 0 0 0 0 0 0 0 0 0 0 0 0 0 0.44 0"/>
<feBlend mode="normal" in2="BackgroundImageFix" result="effect1_dropShadow_6_26"/>
<feBlend mode="normal" in="SourceGraphic" in2="effect1_dropShadow_6_26" result="shape"/>
</filter>
<filter id="filter1_b_6_26" x="24" y="-14" width="331" height="147" filterUnits="userSpaceOnUse" color-interpolation-filters="sRGB">
<feFlood flood-opacity="0" result="BackgroundImageFix"/>
<feGaussianBlur in="BackgroundImageFix" stdDeviation="7.5"/>
<feComposite in2="SourceAlpha" operator="in" result="effect1_backgroundBlur_6_26"/>
<feBlend mode="normal" in="SourceGraphic" in2="effect1_backgroundBlur_6_26" result="shape"/>
</filter>
<filter id="filter2_bd_6_26" x="65.075" y="40.8" width="250.265" height="39.775" filterUnits="userSpaceOnUse" color-interpolation-filters="sRGB">
<feFlood flood-opacity="0" result="BackgroundImageFix"/>
<feGaussianBlur in="BackgroundImageFix" stdDeviation="2"/>
<feComposite in2="SourceAlpha" operator="in" result="effect1_backgroundBlur_6_26"/>
<feColorMatrix in="SourceAlpha" type="matrix" values="0 0 0 0 0 0 0 0 0 0 0 0 0 0 0 0 0 0 127 0" result="hardAlpha"/>
<feOffset dx="3" dy="-2"/>
<feGaussianBlur stdDeviation="2"/>
<feComposite in2="hardAlpha" operator="out"/>
<feColorMatrix type="matrix" values="0 0 0 0 0.353333 0 0 0 0 0.353333 0 0 0 0 0.353333 0 0 0 1 0"/>
<feBlend mode="normal" in2="effect1_backgroundBlur_6_26" result="effect2_dropShadow_6_26"/>
<feBlend mode="normal" in="SourceGraphic" in2="effect2_dropShadow_6_26" result="shape"/>
</filter>
<filter id="filter3_d_6_26" x="208" y="124" width="84" height="40" filterUnits="userSpaceOnUse" color-interpolation-filters="sRGB">
<feFlood flood-opacity="0" result="BackgroundImageFix"/>
<feColorMatrix in="SourceAlpha" type="matrix" values="0 0 0 0 0 0 0 0 0 0 0 0 0 0 0 0 0 0 127 0" result="hardAlpha"/>
<feOffset dx="2" dy="2"/>
<feGaussianBlur stdDeviation="2"/>
<feComposite in2="hardAlpha" operator="out"/>
<feColorMatrix type="matrix" values="0 0 0 0 0 0 0 0 0 0 0 0 0 0 0 0 0 0 0.47 0"/>
<feBlend mode="normal" in2="BackgroundImageFix" result="effect1_dropShadow_6_26"/>
<feBlend mode="normal" in="SourceGraphic" in2="effect1_dropShadow_6_26" result="shape"/>
</filter>
<linearGradient id="paint0_linear_6_26" x1="177.297" y1="9" x2="168.447" y2="453.968" gradientUnits="userSpaceOnUse">
<stop offset="0.0189996" stop-color="#E6E6E6"/>
</linearGradient>
<linearGradient id="paint1_linear_6_26" x1="280.342" y1="45" x2="143.448" y2="174.158" gradientUnits="userSpaceOnUse">
<stop stop-color="white"/>
<stop offset="1" stop-color="white" stop-opacity="0"/>
</linearGradient>
</defs>
</svg>
