<svg width="354" height="237" viewBox="0 0 354 237" fill="none" xmlns="http://www.w3.org/2000/svg">
<rect x="155" y="144" width="107" height="93" rx="10" fill="#0099FF"/>
<rect x="217" width="137" height="122" rx="10" fill="#FF5050"/>
<g filter="url(#filter0_b_0_1)">
<path d="M0 93C0 76.4315 13.4315 63 30 63H303C319.569 63 333 76.4315 333 93V150C333 166.569 319.569 180 303 180H30C13.4315 180 0 166.569 0 150V93Z" fill="url(#paint0_linear_0_1)"/>
<path d="M30 65H303C318.464 65 331 77.536 331 93V150C331 165.464 318.464 178 303 178H30C14.536 178 2 165.464 2 150V93C2 77.536 14.536 65 30 65Z" stroke="url(#paint1_linear_0_1)" stroke-opacity="0.61" stroke-width="4"/>
</g>
<g filter="url(#filter1_bd_0_1)">
<path d="M64.45 119.825C70.5 118.675 73.775 118.1 74.275 118.1C74.825 118.1 75.35 118.55 75.85 119.45C76.35 120.35 76.6 121.1 76.6 121.7C76.6 123.6 76.025 124.6 74.875 124.7L66.25 125.75L71.8 134.3C72.5 136 71.475 137.35 68.725 138.35C68.225 138.5 67.825 138.575 67.525 138.575C66.525 138.575 65.9 138.325 65.65 137.825L61.225 129.35L57.175 137.825C56.875 138.225 56.475 138.425 55.975 138.425C55.525 138.425 54.925 138.35 54.175 138.2C53.475 138.05 52.75 137.6 52 136.85C51.25 136.1 50.875 135.525 50.875 135.125C50.875 134.675 50.975 134.325 51.175 134.075L56.425 125.75C52.275 125.2 49.4 124.85 47.8 124.7C46.65 124.65 46.075 123.825 46.075 122.225C46.075 121.325 46.325 120.425 46.825 119.525C47.325 118.575 47.95 118.1 48.7 118.1L58.075 119.825L57.775 110.9C57.725 110.05 58.3 109.45 59.5 109.1C60.1 108.9 60.7 108.8 61.3 108.8C61.9 108.8 62.5 108.9 63.1 109.1C64.25 109.45 64.8 110.05 64.75 110.9L64.45 119.825ZM106.198 119.825C112.248 118.675 115.523 118.1 116.023 118.1C116.573 118.1 117.098 118.55 117.598 119.45C118.098 120.35 118.348 121.1 118.348 121.7C118.348 123.6 117.773 124.6 116.623 124.7L107.998 125.75L113.548 134.3C114.248 136 113.223 137.35 110.473 138.35C109.973 138.5 109.573 138.575 109.273 138.575C108.273 138.575 107.648 138.325 107.398 137.825L102.973 129.35L98.923 137.825C98.623 138.225 98.223 138.425 97.723 138.425C97.273 138.425 96.673 138.35 95.923 138.2C95.223 138.05 94.498 137.6 93.748 136.85C92.998 136.1 92.623 135.525 92.623 135.125C92.623 134.675 92.723 134.325 92.923 134.075L98.173 125.75C94.023 125.2 91.148 124.85 89.548 124.7C88.398 124.65 87.823 123.825 87.823 122.225C87.823 121.325 88.073 120.425 88.573 119.525C89.073 118.575 89.698 118.1 90.448 118.1L99.823 119.825L99.523 110.9C99.473 110.05 100.048 109.45 101.248 109.1C101.848 108.9 102.448 108.8 103.048 108.8C103.648 108.8 104.248 108.9 104.848 109.1C105.998 109.45 106.548 110.05 106.498 110.9L106.198 119.825ZM147.946 119.825C153.996 118.675 157.271 118.1 157.771 118.1C158.321 118.1 158.846 118.55 159.346 119.45C159.846 120.35 160.096 121.1 160.096 121.7C160.096 123.6 159.521 124.6 158.371 124.7L149.746 125.75L155.296 134.3C155.996 136 154.971 137.35 152.221 138.35C151.721 138.5 151.321 138.575 151.021 138.575C150.021 138.575 149.396 138.325 149.146 137.825L144.721 129.35L140.671 137.825C140.371 138.225 139.971 138.425 139.471 138.425C139.021 138.425 138.421 138.35 137.671 138.2C136.971 138.05 136.246 137.6 135.496 136.85C134.746 136.1 134.371 135.525 134.371 135.125C134.371 134.675 134.471 134.325 134.671 134.075L139.921 125.75C135.771 125.2 132.896 124.85 131.296 124.7C130.146 124.65 129.571 123.825 129.571 122.225C129.571 121.325 129.821 120.425 130.321 119.525C130.821 118.575 131.446 118.1 132.196 118.1L141.571 119.825L141.271 110.9C141.221 110.05 141.796 109.45 142.996 109.1C143.596 108.9 144.196 108.8 144.796 108.8C145.396 108.8 145.996 108.9 146.596 109.1C147.746 109.45 148.296 110.05 148.246 110.9L147.946 119.825ZM189.694 119.825C195.744 118.675 199.019 118.1 199.519 118.1C200.069 118.1 200.594 118.55 201.094 119.45C201.594 120.35 201.844 121.1 201.844 121.7C201.844 123.6 201.269 124.6 200.119 124.7L191.494 125.75L197.044 134.3C197.744 136 196.719 137.35 193.969 138.35C193.469 138.5 193.069 138.575 192.769 138.575C191.769 138.575 191.144 138.325 190.894 137.825L186.469 129.35L182.419 137.825C182.119 138.225 181.719 138.425 181.219 138.425C180.769 138.425 180.169 138.35 179.419 138.2C178.719 138.05 177.994 137.6 177.244 136.85C176.494 136.1 176.119 135.525 176.119 135.125C176.119 134.675 176.219 134.325 176.419 134.075L181.669 125.75C177.519 125.2 174.644 124.85 173.044 124.7C171.894 124.65 171.319 123.825 171.319 122.225C171.319 121.325 171.569 120.425 172.069 119.525C172.569 118.575 173.194 118.1 173.944 118.1L183.319 119.825L183.019 110.9C182.969 110.05 183.544 109.45 184.744 109.1C185.344 108.9 185.944 108.8 186.544 108.8C187.144 108.8 187.744 108.9 188.344 109.1C189.494 109.45 190.044 110.05 189.994 110.9L189.694 119.825ZM231.442 119.825C237.492 118.675 240.767 118.1 241.267 118.1C241.817 118.1 242.342 118.55 242.842 119.45C243.342 120.35 243.592 121.1 243.592 121.7C243.592 123.6 243.017 124.6 241.867 124.7L233.242 125.75L238.792 134.3C239.492 136 238.467 137.35 235.717 138.35C235.217 138.5 234.817 138.575 234.517 138.575C233.517 138.575 232.892 138.325 232.642 137.825L228.217 129.35L224.167 137.825C223.867 138.225 223.467 138.425 222.967 138.425C222.517 138.425 221.917 138.35 221.167 138.2C220.467 138.05 219.742 137.6 218.992 136.85C218.242 136.1 217.867 135.525 217.867 135.125C217.867 134.675 217.967 134.325 218.167 134.075L223.417 125.75C219.267 125.2 216.392 124.85 214.792 124.7C213.642 124.65 213.067 123.825 213.067 122.225C213.067 121.325 213.317 120.425 213.817 119.525C214.317 118.575 214.942 118.1 215.692 118.1L225.067 119.825L224.767 110.9C224.717 110.05 225.292 109.45 226.492 109.1C227.092 108.9 227.692 108.8 228.292 108.8C228.892 108.8 229.492 108.9 230.092 109.1C231.242 109.45 231.792 110.05 231.742 110.9L231.442 119.825ZM273.19 119.825C279.24 118.675 282.515 118.1 283.015 118.1C283.565 118.1 284.09 118.55 284.59 119.45C285.09 120.35 285.34 121.1 285.34 121.7C285.34 123.6 284.765 124.6 283.615 124.7L274.99 125.75L280.54 134.3C281.24 136 280.215 137.35 277.465 138.35C276.965 138.5 276.565 138.575 276.265 138.575C275.265 138.575 274.64 138.325 274.39 137.825L269.965 129.35L265.915 137.825C265.615 138.225 265.215 138.425 264.715 138.425C264.265 138.425 263.665 138.35 262.915 138.2C262.215 138.05 261.49 137.6 260.74 136.85C259.99 136.1 259.615 135.525 259.615 135.125C259.615 134.675 259.715 134.325 259.915 134.075L265.165 125.75C261.015 125.2 258.14 124.85 256.54 124.7C255.39 124.65 254.815 123.825 254.815 122.225C254.815 121.325 255.065 120.425 255.565 119.525C256.065 118.575 256.69 118.1 257.44 118.1L266.815 119.825L266.515 110.9C266.465 110.05 267.04 109.45 268.24 109.1C268.84 108.9 269.44 108.8 270.04 108.8C270.64 108.8 271.24 108.9 271.84 109.1C272.99 109.45 273.54 110.05 273.49 110.9L273.19 119.825Z" fill="black"/>
</g>
<defs>
<filter id="filter0_b_0_1" x="-15" y="48" width="363" height="147" filterUnits="userSpaceOnUse" color-interpolation-filters="sRGB">
<feFlood flood-opacity="0" result="BackgroundImageFix"/>
<feGaussianBlur in="BackgroundImageFix" stdDeviation="7.5"/>
<feComposite in2="SourceAlpha" operator="in" result="effect1_backgroundBlur_0_1"/>
<feBlend mode="normal" in="SourceGraphic" in2="effect1_backgroundBlur_0_1" result="shape"/>
</filter>
<filter id="filter1_bd_0_1" x="42.075" y="102.8" width="250.265" height="39.775" filterUnits="userSpaceOnUse" color-interpolation-filters="sRGB">
<feFlood flood-opacity="0" result="BackgroundImageFix"/>
<feGaussianBlur in="BackgroundImageFix" stdDeviation="2"/>
<feComposite in2="SourceAlpha" operator="in" result="effect1_backgroundBlur_0_1"/>
<feColorMatrix in="SourceAlpha" type="matrix" values="0 0 0 0 0 0 0 0 0 0 0 0 0 0 0 0 0 0 127 0" result="hardAlpha"/>
<feOffset dx="3" dy="-2"/>
<feGaussianBlur stdDeviation="2"/>
<feComposite in2="hardAlpha" operator="out"/>
<feColorMatrix type="matrix" values="0 0 0 0 0.353333 0 0 0 0 0.353333 0 0 0 0 0.353333 0 0 0 1 0"/>
<feBlend mode="normal" in2="effect1_backgroundBlur_0_1" result="effect2_dropShadow_0_1"/>
<feBlend mode="normal" in="SourceGraphic" in2="effect2_dropShadow_0_1" result="shape"/>
</filter>
<linearGradient id="paint0_linear_0_1" x1="153" y1="71" x2="145" y2="516" gradientUnits="userSpaceOnUse">
<stop offset="0.0189996" stop-color="white" stop-opacity="0.65"/>
</linearGradient>
<linearGradient id="paint1_linear_0_1" x1="267" y1="107" x2="130" y2="250" gradientUnits="userSpaceOnUse">
<stop stop-color="white" stop-opacity="0.64"/>
<stop offset="1" stop-color="white" stop-opacity="0"/>
</linearGradient>
</defs>
</svg>
